STARTFONT 2.1
FONT -Cream Adjacent Normal-Normal-R-Normal--16-16-75-75-c-80-iso10646-1
SIZE 16 75 75
FONTBOUNDINGBOX 8 16 0 -4
STARTPROPERTIES 9
FAMILY_NAME Cream Adjacent Normal
WEIGHT_NAME Normal
FONT_VERSION Version 1.0
FOUNDRY Made with Bits'n'Picas by Kreative Software
FONT_ASCENT 12
FONT_DESCENT 4
CAP_HEIGHT 12
POINT_SIZE 16
X_HEIGHT 12
ENDPROPERTIES
CHARS 256
STARTCHAR U+0000
ENCODING 0
SWIDTH 1000 0
DWIDTH 8 0
BBX 6 15 1 -3
BITMAP
78
CC
DC
FC
EC
CC
78
00
78
CC
DC
FC
EC
CC
78
ENDCHAR
STARTCHAR U+0001
ENCODING 1
SWIDTH 1000 0
DWIDTH 8 0
BBX 6 15 1 -3
BITMAP
78
CC
DC
FC
EC
CC
78
00
30
70
30
30
30
30
FC
ENDCHAR
STARTCHAR U+0002
ENCODING 2
SWIDTH 1000 0
DWIDTH 8 0
BBX 6 15 1 -3
BITMAP
78
CC
DC
FC
EC
CC
78
00
78
CC
0C
38
60
CC
FC
ENDCHAR
STARTCHAR U+0003
ENCODING 3
SWIDTH 1000 0
DWIDTH 8 0
BBX 6 15 1 -3
BITMAP
78
CC
DC
FC
EC
CC
78
00
78
CC
0C
38
0C
CC
78
ENDCHAR
STARTCHAR U+0004
ENCODING 4
SWIDTH 1000 0
DWIDTH 8 0
BBX 7 15 0 -3
BITMAP
3C
66
6E
7E
76
66
3C
00
1C
3C
6C
CC
FE
0C
1E
ENDCHAR
STARTCHAR U+0005
ENCODING 5
SWIDTH 1000 0
DWIDTH 8 0
BBX 6 15 1 -3
BITMAP
78
CC
DC
FC
EC
CC
78
00
FC
C0
F8
0C
0C
CC
78
ENDCHAR
STARTCHAR U+0006
ENCODING 6
SWIDTH 1000 0
DWIDTH 8 0
BBX 6 15 1 -3
BITMAP
78
CC
DC
FC
EC
CC
78
00
38
60
C0
F8
CC
CC
78
ENDCHAR
STARTCHAR U+0007
ENCODING 7
SWIDTH 1000 0
DWIDTH 8 0
BBX 6 15 1 -3
BITMAP
78
CC
DC
FC
EC
CC
78
00
FC
CC
0C
18
30
30
30
ENDCHAR
STARTCHAR U+0008
ENCODING 8
SWIDTH 1000 0
DWIDTH 8 0
BBX 6 15 1 -3
BITMAP
78
CC
DC
FC
EC
CC
78
00
78
CC
CC
78
CC
CC
78
ENDCHAR
STARTCHAR U+0009
ENCODING 9
SWIDTH 1000 0
DWIDTH 8 0
BBX 6 15 1 -3
BITMAP
78
CC
DC
FC
EC
CC
78
00
78
CC
CC
7C
0C
18
70
ENDCHAR
STARTCHAR U+000A
ENCODING 10
SWIDTH 1000 0
DWIDTH 8 0
BBX 8 15 0 -3
BITMAP
3C
66
6E
7E
76
66
3C
00
18
3C
3C
66
7E
C3
C3
ENDCHAR
STARTCHAR U+000B
ENCODING 11
SWIDTH 1000 0
DWIDTH 8 0
BBX 7 15 0 -3
BITMAP
3C
66
6E
7E
76
66
3C
00
FC
66
66
7C
66
66
FC
ENDCHAR
STARTCHAR U+000C
ENCODING 12
SWIDTH 1000 0
DWIDTH 8 0
BBX 7 15 0 -3
BITMAP
3C
66
6E
7E
76
66
3C
00
3C
66
C0
C0
C0
66
3C
ENDCHAR
STARTCHAR U+000D
ENCODING 13
SWIDTH 1000 0
DWIDTH 8 0
BBX 7 15 0 -3
BITMAP
3C
66
6E
7E
76
66
3C
00
F8
6C
66
66
66
6C
F8
ENDCHAR
STARTCHAR U+000E
ENCODING 14
SWIDTH 1000 0
DWIDTH 8 0
BBX 7 15 0 -3
BITMAP
3C
66
6E
7E
76
66
3C
00
FE
66
60
78
60
66
FE
ENDCHAR
STARTCHAR U+000F
ENCODING 15
SWIDTH 1000 0
DWIDTH 8 0
BBX 7 15 0 -3
BITMAP
3C
66
6E
7E
76
66
3C
00
FE
66
60
78
60
60
F0
ENDCHAR
STARTCHAR U+0010
ENCODING 16
SWIDTH 1000 0
DWIDTH 8 0
BBX 6 15 1 -3
BITMAP
30
70
30
30
30
30
FC
00
78
CC
DC
FC
EC
CC
78
ENDCHAR
STARTCHAR U+0011
ENCODING 17
SWIDTH 1000 0
DWIDTH 8 0
BBX 6 15 1 -3
BITMAP
30
70
30
30
30
30
FC
00
30
70
30
30
30
30
FC
ENDCHAR
STARTCHAR U+0012
ENCODING 18
SWIDTH 1000 0
DWIDTH 8 0
BBX 6 15 1 -3
BITMAP
30
70
30
30
30
30
FC
00
78
CC
0C
38
60
CC
FC
ENDCHAR
STARTCHAR U+0013
ENCODING 19
SWIDTH 1000 0
DWIDTH 8 0
BBX 6 15 1 -3
BITMAP
30
70
30
30
30
30
FC
00
78
CC
0C
38
0C
CC
78
ENDCHAR
STARTCHAR U+0014
ENCODING 20
SWIDTH 1000 0
DWIDTH 8 0
BBX 7 15 0 -3
BITMAP
18
38
18
18
18
18
7E
00
1C
3C
6C
CC
FE
0C
1E
ENDCHAR
STARTCHAR U+0015
ENCODING 21
SWIDTH 1000 0
DWIDTH 8 0
BBX 6 15 1 -3
BITMAP
30
70
30
30
30
30
FC
00
FC
C0
F8
0C
0C
CC
78
ENDCHAR
STARTCHAR U+0016
ENCODING 22
SWIDTH 1000 0
DWIDTH 8 0
BBX 6 15 1 -3
BITMAP
30
70
30
30
30
30
FC
00
38
60
C0
F8
CC
CC
78
ENDCHAR
STARTCHAR U+0017
ENCODING 23
SWIDTH 1000 0
DWIDTH 8 0
BBX 6 15 1 -3
BITMAP
30
70
30
30
30
30
FC
00
FC
CC
0C
18
30
30
30
ENDCHAR
STARTCHAR U+0018
ENCODING 24
SWIDTH 1000 0
DWIDTH 8 0
BBX 6 15 1 -3
BITMAP
30
70
30
30
30
30
FC
00
78
CC
CC
78
CC
CC
78
ENDCHAR
STARTCHAR U+0019
ENCODING 25
SWIDTH 1000 0
DWIDTH 8 0
BBX 6 15 1 -3
BITMAP
30
70
30
30
30
30
FC
00
78
CC
CC
7C
0C
18
70
ENDCHAR
STARTCHAR U+001A
ENCODING 26
SWIDTH 1000 0
DWIDTH 8 0
BBX 8 15 0 -3
BITMAP
18
38
18
18
18
18
7E
00
18
3C
3C
66
7E
C3
C3
ENDCHAR
STARTCHAR U+001B
ENCODING 27
SWIDTH 1000 0
DWIDTH 8 0
BBX 7 15 0 -3
BITMAP
18
38
18
18
18
18
7E
00
FC
66
66
7C
66
66
FC
ENDCHAR
STARTCHAR U+001C
ENCODING 28
SWIDTH 1000 0
DWIDTH 8 0
BBX 7 15 0 -3
BITMAP
18
38
18
18
18
18
7E
00
3C
66
C0
C0
C0
66
3C
ENDCHAR
STARTCHAR U+001D
ENCODING 29
SWIDTH 1000 0
DWIDTH 8 0
BBX 7 15 0 -3
BITMAP
18
38
18
18
18
18
7E
00
F8
6C
66
66
66
6C
F8
ENDCHAR
STARTCHAR U+001E
ENCODING 30
SWIDTH 1000 0
DWIDTH 8 0
BBX 7 15 0 -3
BITMAP
18
38
18
18
18
18
7E
00
FE
66
60
78
60
66
FE
ENDCHAR
STARTCHAR U+001F
ENCODING 31
SWIDTH 1000 0
DWIDTH 8 0
BBX 7 15 0 -3
BITMAP
18
38
18
18
18
18
7E
00
FE
66
60
78
60
60
F0
ENDCHAR
STARTCHAR U+0020
ENCODING 32
SWIDTH 1000 0
DWIDTH 8 0
BBX 0 0 0 0
BITMAP
ENDCHAR
STARTCHAR U+0021
ENCODING 33
SWIDTH 1000 0
DWIDTH 8 0
BBX 1 10 3 0
BITMAP
80
80
80
80
80
80
80
00
80
80
ENDCHAR
STARTCHAR U+0022
ENCODING 34
SWIDTH 1000 0
DWIDTH 8 0
BBX 4 4 2 8
BITMAP
50
50
A0
A0
ENDCHAR
STARTCHAR U+0023
ENCODING 35
SWIDTH 1000 0
DWIDTH 8 0
BBX 7 8 0 0
BITMAP
12
24
7E
24
48
FC
48
90
ENDCHAR
STARTCHAR U+0024
ENCODING 36
SWIDTH 1000 0
DWIDTH 8 0
BBX 7 12 0 -2
BITMAP
10
10
7C
92
90
7C
12
12
92
7C
10
10
ENDCHAR
STARTCHAR U+0025
ENCODING 37
SWIDTH 1000 0
DWIDTH 8 0
BBX 7 14 0 -2
BITMAP
02
02
64
94
98
68
10
10
2C
32
52
4C
80
80
ENDCHAR
STARTCHAR U+0026
ENCODING 38
SWIDTH 1000 0
DWIDTH 8 0
BBX 6 8 0 0
BITMAP
70
88
80
7C
88
88
88
70
ENDCHAR
STARTCHAR U+0027
ENCODING 39
SWIDTH 1000 0
DWIDTH 8 0
BBX 2 4 2 8
BITMAP
40
40
80
80
ENDCHAR
STARTCHAR U+0028
ENCODING 40
SWIDTH 1000 0
DWIDTH 8 0
BBX 4 12 2 -1
BITMAP
10
20
40
40
80
80
80
80
40
40
20
10
ENDCHAR
STARTCHAR U+0029
ENCODING 41
SWIDTH 1000 0
DWIDTH 8 0
BBX 4 12 2 -1
BITMAP
80
40
20
20
10
10
10
10
20
20
40
80
ENDCHAR
STARTCHAR U+002A
ENCODING 42
SWIDTH 1000 0
DWIDTH 8 0
BBX 7 7 0 1
BITMAP
10
54
28
C6
28
54
10
ENDCHAR
STARTCHAR U+002B
ENCODING 43
SWIDTH 1000 0
DWIDTH 8 0
BBX 7 7 0 1
BITMAP
10
10
10
FE
10
10
10
ENDCHAR
STARTCHAR U+002C
ENCODING 44
SWIDTH 1000 0
DWIDTH 8 0
BBX 2 4 3 -2
BITMAP
C0
C0
40
80
ENDCHAR
STARTCHAR U+002D
ENCODING 45
SWIDTH 1000 0
DWIDTH 8 0
BBX 7 1 0 4
BITMAP
FE
ENDCHAR
STARTCHAR U+002E
ENCODING 46
SWIDTH 1000 0
DWIDTH 8 0
BBX 2 2 3 0
BITMAP
C0
C0
ENDCHAR
STARTCHAR U+002F
ENCODING 47
SWIDTH 1000 0
DWIDTH 8 0
BBX 7 14 0 -2
BITMAP
02
02
04
04
08
08
10
10
20
20
40
40
80
80
ENDCHAR
STARTCHAR U+0030
ENCODING 48
SWIDTH 1000 0
DWIDTH 8 0
BBX 7 10 0 0
BITMAP
7C
82
82
82
82
82
82
82
82
7C
ENDCHAR
STARTCHAR U+0031
ENCODING 49
SWIDTH 1000 0
DWIDTH 8 0
BBX 7 10 0 0
BITMAP
10
30
50
10
10
10
10
10
10
FE
ENDCHAR
STARTCHAR U+0032
ENCODING 50
SWIDTH 1000 0
DWIDTH 8 0
BBX 7 10 0 0
BITMAP
7C
82
02
02
04
08
10
20
40
FE
ENDCHAR
STARTCHAR U+0033
ENCODING 51
SWIDTH 1000 0
DWIDTH 8 0
BBX 7 10 0 0
BITMAP
7C
82
02
02
1C
02
02
02
82
7C
ENDCHAR
STARTCHAR U+0034
ENCODING 52
SWIDTH 1000 0
DWIDTH 8 0
BBX 7 10 0 0
BITMAP
44
44
84
84
FE
04
04
04
04
04
ENDCHAR
STARTCHAR U+0035
ENCODING 53
SWIDTH 1000 0
DWIDTH 8 0
BBX 7 10 0 0
BITMAP
FE
80
80
80
7C
02
02
02
82
7C
ENDCHAR
STARTCHAR U+0036
ENCODING 54
SWIDTH 1000 0
DWIDTH 8 0
BBX 7 10 0 0
BITMAP
7C
82
80
80
FC
82
82
82
82
7C
ENDCHAR
STARTCHAR U+0037
ENCODING 55
SWIDTH 1000 0
DWIDTH 8 0
BBX 7 10 0 0
BITMAP
FE
02
02
02
04
04
04
04
04
04
ENDCHAR
STARTCHAR U+0038
ENCODING 56
SWIDTH 1000 0
DWIDTH 8 0
BBX 7 10 0 0
BITMAP
7C
82
82
82
7C
82
82
82
82
7C
ENDCHAR
STARTCHAR U+0039
ENCODING 57
SWIDTH 1000 0
DWIDTH 8 0
BBX 7 10 0 0
BITMAP
7C
82
82
82
7E
02
02
02
82
7C
ENDCHAR
STARTCHAR U+003A
ENCODING 58
SWIDTH 1000 0
DWIDTH 8 0
BBX 2 8 3 0
BITMAP
C0
C0
00
00
00
00
C0
C0
ENDCHAR
STARTCHAR U+003B
ENCODING 59
SWIDTH 1000 0
DWIDTH 8 0
BBX 2 10 3 -2
BITMAP
C0
C0
00
00
00
00
C0
C0
40
80
ENDCHAR
STARTCHAR U+003C
ENCODING 60
SWIDTH 1000 0
DWIDTH 8 0
BBX 7 7 0 1
BITMAP
02
0C
70
80
70
0C
02
ENDCHAR
STARTCHAR U+003D
ENCODING 61
SWIDTH 1000 0
DWIDTH 8 0
BBX 7 4 0 3
BITMAP
FE
00
00
FE
ENDCHAR
STARTCHAR U+003E
ENCODING 62
SWIDTH 1000 0
DWIDTH 8 0
BBX 7 7 0 1
BITMAP
80
60
1C
02
1C
60
80
ENDCHAR
STARTCHAR U+003F
ENCODING 63
SWIDTH 1000 0
DWIDTH 8 0
BBX 5 10 1 0
BITMAP
70
88
88
08
10
20
20
00
20
20
ENDCHAR
STARTCHAR U+0040
ENCODING 64
SWIDTH 1000 0
DWIDTH 8 0
BBX 7 9 0 0
BITMAP
7C
82
BE
A2
A2
A6
BA
80
7C
ENDCHAR
STARTCHAR U+0041
ENCODING 65
SWIDTH 1000 0
DWIDTH 8 0
BBX 7 10 0 0
BITMAP
10
10
28
28
44
44
7C
82
82
82
ENDCHAR
STARTCHAR U+0042
ENCODING 66
SWIDTH 1000 0
DWIDTH 8 0
BBX 7 10 0 0
BITMAP
FC
82
82
82
FC
82
82
82
82
FC
ENDCHAR
STARTCHAR U+0043
ENCODING 67
SWIDTH 1000 0
DWIDTH 8 0
BBX 7 10 0 0
BITMAP
3C
42
80
80
80
80
80
82
44
38
ENDCHAR
STARTCHAR U+0044
ENCODING 68
SWIDTH 1000 0
DWIDTH 8 0
BBX 7 10 0 0
BITMAP
F8
84
82
82
82
82
82
82
84
F8
ENDCHAR
STARTCHAR U+0045
ENCODING 69
SWIDTH 1000 0
DWIDTH 8 0
BBX 7 10 0 0
BITMAP
FE
80
80
80
F8
80
80
80
80
FE
ENDCHAR
STARTCHAR U+0046
ENCODING 70
SWIDTH 1000 0
DWIDTH 8 0
BBX 7 10 0 0
BITMAP
FE
80
80
80
F8
80
80
80
80
80
ENDCHAR
STARTCHAR U+0047
ENCODING 71
SWIDTH 1000 0
DWIDTH 8 0
BBX 7 10 0 0
BITMAP
3C
42
80
80
8E
82
82
82
44
38
ENDCHAR
STARTCHAR U+0048
ENCODING 72
SWIDTH 1000 0
DWIDTH 8 0
BBX 7 10 0 0
BITMAP
82
82
82
82
FE
82
82
82
82
82
ENDCHAR
STARTCHAR U+0049
ENCODING 73
SWIDTH 1000 0
DWIDTH 8 0
BBX 1 10 3 0
BITMAP
80
80
80
80
80
80
80
80
80
80
ENDCHAR
STARTCHAR U+004A
ENCODING 74
SWIDTH 1000 0
DWIDTH 8 0
BBX 4 12 1 -2
BITMAP
10
10
10
10
10
10
10
10
10
10
20
C0
ENDCHAR
STARTCHAR U+004B
ENCODING 75
SWIDTH 1000 0
DWIDTH 8 0
BBX 7 10 0 0
BITMAP
86
88
90
A0
C0
A0
90
88
84
82
ENDCHAR
STARTCHAR U+004C
ENCODING 76
SWIDTH 1000 0
DWIDTH 8 0
BBX 7 10 0 0
BITMAP
80
80
80
80
80
80
80
80
80
FE
ENDCHAR
STARTCHAR U+004D
ENCODING 77
SWIDTH 1000 0
DWIDTH 8 0
BBX 7 10 0 0
BITMAP
82
C6
AA
AA
92
92
82
82
82
82
ENDCHAR
STARTCHAR U+004E
ENCODING 78
SWIDTH 1000 0
DWIDTH 8 0
BBX 7 10 0 0
BITMAP
82
C2
A2
A2
92
92
8A
8A
86
82
ENDCHAR
STARTCHAR U+004F
ENCODING 79
SWIDTH 1000 0
DWIDTH 8 0
BBX 7 10 0 0
BITMAP
38
44
82
82
82
82
82
82
44
38
ENDCHAR
STARTCHAR U+0050
ENCODING 80
SWIDTH 1000 0
DWIDTH 8 0
BBX 7 10 0 0
BITMAP
FC
82
82
82
FC
80
80
80
80
80
ENDCHAR
STARTCHAR U+0051
ENCODING 81
SWIDTH 1000 0
DWIDTH 8 0
BBX 8 12 0 -2
BITMAP
38
44
82
82
82
82
82
82
44
38
04
03
ENDCHAR
STARTCHAR U+0052
ENCODING 82
SWIDTH 1000 0
DWIDTH 8 0
BBX 7 10 0 0
BITMAP
FC
82
82
82
FC
A0
90
88
84
82
ENDCHAR
STARTCHAR U+0053
ENCODING 83
SWIDTH 1000 0
DWIDTH 8 0
BBX 7 10 0 0
BITMAP
7C
82
80
80
7C
02
02
02
82
7C
ENDCHAR
STARTCHAR U+0054
ENCODING 84
SWIDTH 1000 0
DWIDTH 8 0
BBX 7 10 0 0
BITMAP
FE
10
10
10
10
10
10
10
10
10
ENDCHAR
STARTCHAR U+0055
ENCODING 85
SWIDTH 1000 0
DWIDTH 8 0
BBX 7 10 0 0
BITMAP
82
82
82
82
82
82
82
86
8A
72
ENDCHAR
STARTCHAR U+0056
ENCODING 86
SWIDTH 1000 0
DWIDTH 8 0
BBX 7 10 0 0
BITMAP
82
82
82
44
44
44
28
28
10
10
ENDCHAR
STARTCHAR U+0057
ENCODING 87
SWIDTH 1000 0
DWIDTH 8 0
BBX 7 10 0 0
BITMAP
82
82
82
82
92
92
AA
AA
44
44
ENDCHAR
STARTCHAR U+0058
ENCODING 88
SWIDTH 1000 0
DWIDTH 8 0
BBX 7 10 0 0
BITMAP
82
82
44
28
10
28
44
44
82
82
ENDCHAR
STARTCHAR U+0059
ENCODING 89
SWIDTH 1000 0
DWIDTH 8 0
BBX 7 10 0 0
BITMAP
82
82
44
28
10
10
10
10
10
10
ENDCHAR
STARTCHAR U+005A
ENCODING 90
SWIDTH 1000 0
DWIDTH 8 0
BBX 7 10 0 0
BITMAP
FE
04
08
08
10
10
20
20
40
FE
ENDCHAR
STARTCHAR U+005B
ENCODING 91
SWIDTH 1000 0
DWIDTH 8 0
BBX 2 12 3 -1
BITMAP
C0
80
80
80
80
80
80
80
80
80
80
C0
ENDCHAR
STARTCHAR U+005C
ENCODING 92
SWIDTH 1000 0
DWIDTH 8 0
BBX 7 14 0 -2
BITMAP
80
80
40
40
20
20
10
10
08
08
04
04
02
02
ENDCHAR
STARTCHAR U+005D
ENCODING 93
SWIDTH 1000 0
DWIDTH 8 0
BBX 2 12 3 -1
BITMAP
C0
40
40
40
40
40
40
40
40
40
40
C0
ENDCHAR
STARTCHAR U+005E
ENCODING 94
SWIDTH 1000 0
DWIDTH 8 0
BBX 7 4 0 8
BITMAP
10
28
44
82
ENDCHAR
STARTCHAR U+005F
ENCODING 95
SWIDTH 1000 0
DWIDTH 8 0
BBX 7 1 0 0
BITMAP
FE
ENDCHAR
STARTCHAR U+0060
ENCODING 96
SWIDTH 1000 0
DWIDTH 8 0
BBX 2 4 2 8
BITMAP
80
80
40
40
ENDCHAR
STARTCHAR U+0061
ENCODING 97
SWIDTH 1000 0
DWIDTH 8 0
BBX 8 8 0 0
BITMAP
3C
44
84
84
8C
95
A6
44
ENDCHAR
STARTCHAR U+0062
ENCODING 98
SWIDTH 1000 0
DWIDTH 8 0
BBX 6 10 0 0
BITMAP
80
80
98
A4
C4
84
84
88
90
E0
ENDCHAR
STARTCHAR U+0063
ENCODING 99
SWIDTH 1000 0
DWIDTH 8 0
BBX 6 8 0 0
BITMAP
3C
40
80
80
80
84
88
70
ENDCHAR
STARTCHAR U+0064
ENCODING 100
SWIDTH 1000 0
DWIDTH 8 0
BBX 8 10 0 0
BITMAP
04
04
3C
44
84
84
8C
95
A6
44
ENDCHAR
STARTCHAR U+0065
ENCODING 101
SWIDTH 1000 0
DWIDTH 8 0
BBX 6 8 0 0
BITMAP
38
44
88
90
A0
C4
88
70
ENDCHAR
STARTCHAR U+0066
ENCODING 102
SWIDTH 1000 0
DWIDTH 8 0
BBX 5 12 1 -2
BITMAP
18
20
20
F8
20
20
20
20
20
20
20
20
ENDCHAR
STARTCHAR U+0067
ENCODING 103
SWIDTH 1000 0
DWIDTH 8 0
BBX 6 12 0 -4
BITMAP
38
44
84
84
8C
94
A4
44
04
04
08
70
ENDCHAR
STARTCHAR U+0068
ENCODING 104
SWIDTH 1000 0
DWIDTH 8 0
BBX 8 10 0 0
BITMAP
80
80
98
A4
C4
84
84
85
86
84
ENDCHAR
STARTCHAR U+0069
ENCODING 105
SWIDTH 1000 0
DWIDTH 8 0
BBX 4 10 2 0
BITMAP
20
40
00
40
C0
40
40
50
60
40
ENDCHAR
STARTCHAR U+006A
ENCODING 106
SWIDTH 1000 0
DWIDTH 8 0
BBX 4 13 1 -3
BITMAP
10
20
00
20
60
20
20
20
20
20
20
40
80
ENDCHAR
STARTCHAR U+006B
ENCODING 107
SWIDTH 1000 0
DWIDTH 8 0
BBX 6 10 0 0
BITMAP
80
80
98
A4
C4
C4
B8
90
88
84
ENDCHAR
STARTCHAR U+006C
ENCODING 108
SWIDTH 1000 0
DWIDTH 8 0
BBX 3 10 3 0
BITMAP
80
80
80
80
80
80
80
A0
C0
80
ENDCHAR
STARTCHAR U+006D
ENCODING 109
SWIDTH 1000 0
DWIDTH 8 0
BBX 8 8 0 0
BITMAP
A8
54
54
54
54
55
56
44
ENDCHAR
STARTCHAR U+006E
ENCODING 110
SWIDTH 1000 0
DWIDTH 8 0
BBX 8 8 0 0
BITMAP
B8
44
44
44
44
45
46
44
ENDCHAR
STARTCHAR U+006F
ENCODING 111
SWIDTH 1000 0
DWIDTH 8 0
BBX 6 8 0 0
BITMAP
30
48
84
84
84
84
48
30
ENDCHAR
STARTCHAR U+0070
ENCODING 112
SWIDTH 1000 0
DWIDTH 8 0
BBX 6 12 0 -4
BITMAP
B8
C4
84
84
84
88
90
E0
80
80
80
80
ENDCHAR
STARTCHAR U+0071
ENCODING 113
SWIDTH 1000 0
DWIDTH 8 0
BBX 8 12 0 -4
BITMAP
7C
84
84
84
8C
94
A4
44
04
05
06
04
ENDCHAR
STARTCHAR U+0072
ENCODING 114
SWIDTH 1000 0
DWIDTH 8 0
BBX 6 8 0 0
BITMAP
9C
60
40
40
40
40
40
40
ENDCHAR
STARTCHAR U+0073
ENCODING 115
SWIDTH 1000 0
DWIDTH 8 0
BBX 6 8 0 0
BITMAP
78
84
80
78
04
04
84
78
ENDCHAR
STARTCHAR U+0074
ENCODING 116
SWIDTH 1000 0
DWIDTH 8 0
BBX 6 9 0 0
BITMAP
20
20
3C
E0
20
20
28
30
20
ENDCHAR
STARTCHAR U+0075
ENCODING 117
SWIDTH 1000 0
DWIDTH 8 0
BBX 8 8 0 0
BITMAP
84
84
84
84
8C
95
A6
44
ENDCHAR
STARTCHAR U+0076
ENCODING 118
SWIDTH 1000 0
DWIDTH 8 0
BBX 6 8 0 0
BITMAP
08
44
C4
44
44
48
50
60
ENDCHAR
STARTCHAR U+0077
ENCODING 119
SWIDTH 1000 0
DWIDTH 8 0
BBX 7 8 0 0
BITMAP
04
42
C2
52
52
54
54
68
ENDCHAR
STARTCHAR U+0078
ENCODING 120
SWIDTH 1000 0
DWIDTH 8 0
BBX 7 8 0 0
BITMAP
82
44
28
10
10
28
44
82
ENDCHAR
STARTCHAR U+0079
ENCODING 121
SWIDTH 1000 0
DWIDTH 8 0
BBX 7 12 0 -4
BITMAP
42
C2
42
42
46
4A
52
22
02
02
04
38
ENDCHAR
STARTCHAR U+007A
ENCODING 122
SWIDTH 1000 0
DWIDTH 8 0
BBX 6 8 0 0
BITMAP
FC
08
10
10
20
20
40
FC
ENDCHAR
STARTCHAR U+007B
ENCODING 123
SWIDTH 1000 0
DWIDTH 8 0
BBX 3 12 2 -1
BITMAP
20
40
40
40
40
80
40
40
40
40
40
20
ENDCHAR
STARTCHAR U+007C
ENCODING 124
SWIDTH 1000 0
DWIDTH 8 0
BBX 1 14 3 -2
BITMAP
80
80
80
80
80
80
00
80
80
80
80
80
80
80
ENDCHAR
STARTCHAR U+007D
ENCODING 125
SWIDTH 1000 0
DWIDTH 8 0
BBX 3 12 2 -1
BITMAP
80
40
40
40
40
20
40
40
40
40
40
80
ENDCHAR
STARTCHAR U+007E
ENCODING 126
SWIDTH 1000 0
DWIDTH 8 0
BBX 7 11 0 0
BITMAP
60
92
0C
00
00
00
00
00
00
06
06
ENDCHAR
STARTCHAR U+007F
ENCODING 127
SWIDTH 1000 0
DWIDTH 8 0
BBX 7 15 0 -3
BITMAP
7E
66
06
0C
18
18
18
00
FE
66
60
78
60
60
F0
ENDCHAR
STARTCHAR U+0080
ENCODING 128
SWIDTH 1000 0
DWIDTH 8 0
BBX 6 15 1 -3
BITMAP
78
CC
CC
78
CC
CC
78
00
78
CC
DC
FC
EC
CC
78
ENDCHAR
STARTCHAR U+0081
ENCODING 129
SWIDTH 1000 0
DWIDTH 8 0
BBX 6 15 1 -3
BITMAP
78
CC
CC
78
CC
CC
78
00
30
70
30
30
30
30
FC
ENDCHAR
STARTCHAR U+0082
ENCODING 130
SWIDTH 1000 0
DWIDTH 8 0
BBX 6 15 1 -3
BITMAP
78
CC
CC
78
CC
CC
78
00
78
CC
0C
38
60
CC
FC
ENDCHAR
STARTCHAR U+0083
ENCODING 131
SWIDTH 1000 0
DWIDTH 8 0
BBX 6 15 1 -3
BITMAP
78
CC
CC
78
CC
CC
78
00
78
CC
0C
38
0C
CC
78
ENDCHAR
STARTCHAR U+0084
ENCODING 132
SWIDTH 1000 0
DWIDTH 8 0
BBX 7 15 0 -3
BITMAP
3C
66
66
3C
66
66
3C
00
1C
3C
6C
CC
FE
0C
1E
ENDCHAR
STARTCHAR U+0085
ENCODING 133
SWIDTH 1000 0
DWIDTH 8 0
BBX 6 15 1 -3
BITMAP
78
CC
CC
78
CC
CC
78
00
FC
C0
F8
0C
0C
CC
78
ENDCHAR
STARTCHAR U+0086
ENCODING 134
SWIDTH 1000 0
DWIDTH 8 0
BBX 6 15 1 -3
BITMAP
78
CC
CC
78
CC
CC
78
00
38
60
C0
F8
CC
CC
78
ENDCHAR
STARTCHAR U+0087
ENCODING 135
SWIDTH 1000 0
DWIDTH 8 0
BBX 6 15 1 -3
BITMAP
78
CC
CC
78
CC
CC
78
00
FC
CC
0C
18
30
30
30
ENDCHAR
STARTCHAR U+0088
ENCODING 136
SWIDTH 1000 0
DWIDTH 8 0
BBX 6 15 1 -3
BITMAP
78
CC
CC
78
CC
CC
78
00
78
CC
CC
78
CC
CC
78
ENDCHAR
STARTCHAR U+0089
ENCODING 137
SWIDTH 1000 0
DWIDTH 8 0
BBX 6 15 1 -3
BITMAP
78
CC
CC
78
CC
CC
78
00
78
CC
CC
7C
0C
18
70
ENDCHAR
STARTCHAR U+008A
ENCODING 138
SWIDTH 1000 0
DWIDTH 8 0
BBX 8 15 0 -3
BITMAP
3C
66
66
3C
66
66
3C
00
18
3C
3C
66
7E
C3
C3
ENDCHAR
STARTCHAR U+008B
ENCODING 139
SWIDTH 1000 0
DWIDTH 8 0
BBX 7 15 0 -3
BITMAP
3C
66
66
3C
66
66
3C
00
FC
66
66
7C
66
66
FC
ENDCHAR
STARTCHAR U+008C
ENCODING 140
SWIDTH 1000 0
DWIDTH 8 0
BBX 7 15 0 -3
BITMAP
3C
66
66
3C
66
66
3C
00
3C
66
C0
C0
C0
66
3C
ENDCHAR
STARTCHAR U+008D
ENCODING 141
SWIDTH 1000 0
DWIDTH 8 0
BBX 7 15 0 -3
BITMAP
3C
66
66
3C
66
66
3C
00
F8
6C
66
66
66
6C
F8
ENDCHAR
STARTCHAR U+008E
ENCODING 142
SWIDTH 1000 0
DWIDTH 8 0
BBX 7 15 0 -3
BITMAP
3C
66
66
3C
66
66
3C
00
FE
66
60
78
60
66
FE
ENDCHAR
STARTCHAR U+008F
ENCODING 143
SWIDTH 1000 0
DWIDTH 8 0
BBX 7 15 0 -3
BITMAP
3C
66
66
3C
66
66
3C
00
FE
66
60
78
60
60
F0
ENDCHAR
STARTCHAR U+0090
ENCODING 144
SWIDTH 1000 0
DWIDTH 8 0
BBX 6 15 1 -3
BITMAP
78
CC
CC
7C
0C
18
70
00
78
CC
DC
FC
EC
CC
78
ENDCHAR
STARTCHAR U+0091
ENCODING 145
SWIDTH 1000 0
DWIDTH 8 0
BBX 6 15 1 -3
BITMAP
78
CC
CC
7C
0C
18
70
00
30
70
30
30
30
30
FC
ENDCHAR
STARTCHAR U+0092
ENCODING 146
SWIDTH 1000 0
DWIDTH 8 0
BBX 6 15 1 -3
BITMAP
78
CC
CC
7C
0C
18
70
00
78
CC
0C
38
60
CC
FC
ENDCHAR
STARTCHAR U+0093
ENCODING 147
SWIDTH 1000 0
DWIDTH 8 0
BBX 6 15 1 -3
BITMAP
78
CC
CC
7C
0C
18
70
00
78
CC
0C
38
0C
CC
78
ENDCHAR
STARTCHAR U+0094
ENCODING 148
SWIDTH 1000 0
DWIDTH 8 0
BBX 7 15 0 -3
BITMAP
3C
66
66
3E
06
0C
38
00
1C
3C
6C
CC
FE
0C
1E
ENDCHAR
STARTCHAR U+0095
ENCODING 149
SWIDTH 1000 0
DWIDTH 8 0
BBX 6 15 1 -3
BITMAP
78
CC
CC
7C
0C
18
70
00
FC
C0
F8
0C
0C
CC
78
ENDCHAR
STARTCHAR U+0096
ENCODING 150
SWIDTH 1000 0
DWIDTH 8 0
BBX 6 15 1 -3
BITMAP
78
CC
CC
7C
0C
18
70
00
38
60
C0
F8
CC
CC
78
ENDCHAR
STARTCHAR U+0097
ENCODING 151
SWIDTH 1000 0
DWIDTH 8 0
BBX 6 15 1 -3
BITMAP
78
CC
CC
7C
0C
18
70
00
FC
CC
0C
18
30
30
30
ENDCHAR
STARTCHAR U+0098
ENCODING 152
SWIDTH 1000 0
DWIDTH 8 0
BBX 6 15 1 -3
BITMAP
78
CC
CC
7C
0C
18
70
00
78
CC
CC
78
CC
CC
78
ENDCHAR
STARTCHAR U+0099
ENCODING 153
SWIDTH 1000 0
DWIDTH 8 0
BBX 6 15 1 -3
BITMAP
78
CC
CC
7C
0C
18
70
00
78
CC
CC
7C
0C
18
70
ENDCHAR
STARTCHAR U+009A
ENCODING 154
SWIDTH 1000 0
DWIDTH 8 0
BBX 8 15 0 -3
BITMAP
3C
66
66
3E
06
0C
38
00
18
3C
3C
66
7E
C3
C3
ENDCHAR
STARTCHAR U+009B
ENCODING 155
SWIDTH 1000 0
DWIDTH 8 0
BBX 7 15 0 -3
BITMAP
3C
66
66
3E
06
0C
38
00
FC
66
66
7C
66
66
FC
ENDCHAR
STARTCHAR U+009C
ENCODING 156
SWIDTH 1000 0
DWIDTH 8 0
BBX 7 15 0 -3
BITMAP
3C
66
66
3E
06
0C
38
00
3C
66
C0
C0
C0
66
3C
ENDCHAR
STARTCHAR U+009D
ENCODING 157
SWIDTH 1000 0
DWIDTH 8 0
BBX 7 15 0 -3
BITMAP
3C
66
66
3E
06
0C
38
00
F8
6C
66
66
66
6C
F8
ENDCHAR
STARTCHAR U+009E
ENCODING 158
SWIDTH 1000 0
DWIDTH 8 0
BBX 7 15 0 -3
BITMAP
3C
66
66
3E
06
0C
38
00
FE
66
60
78
60
66
FE
ENDCHAR
STARTCHAR U+009F
ENCODING 159
SWIDTH 1000 0
DWIDTH 8 0
BBX 7 15 0 -3
BITMAP
3C
66
66
3E
06
0C
38
00
FE
66
60
78
60
60
F0
ENDCHAR
STARTCHAR U+00A0
ENCODING 160
SWIDTH 1000 0
DWIDTH 8 0
BBX 8 15 0 -3
BITMAP
18
3C
3C
66
7E
C3
C3
00
3C
66
6E
7E
76
66
3C
ENDCHAR
STARTCHAR U+00A1
ENCODING 161
SWIDTH 1000 0
DWIDTH 8 0
BBX 8 15 0 -3
BITMAP
18
3C
3C
66
7E
C3
C3
00
18
38
18
18
18
18
7E
ENDCHAR
STARTCHAR U+00A2
ENCODING 162
SWIDTH 1000 0
DWIDTH 8 0
BBX 8 15 0 -3
BITMAP
18
3C
3C
66
7E
C3
C3
00
3C
66
06
1C
30
66
7E
ENDCHAR
STARTCHAR U+00A3
ENCODING 163
SWIDTH 1000 0
DWIDTH 8 0
BBX 8 15 0 -3
BITMAP
18
3C
3C
66
7E
C3
C3
00
3C
66
06
1C
06
66
3C
ENDCHAR
STARTCHAR U+00A4
ENCODING 164
SWIDTH 1000 0
DWIDTH 8 0
BBX 8 15 0 -3
BITMAP
18
3C
3C
66
7E
C3
C3
00
1C
3C
6C
CC
FE
0C
1E
ENDCHAR
STARTCHAR U+00A5
ENCODING 165
SWIDTH 1000 0
DWIDTH 8 0
BBX 8 15 0 -3
BITMAP
18
3C
3C
66
7E
C3
C3
00
7E
60
7C
06
06
66
3C
ENDCHAR
STARTCHAR U+00A6
ENCODING 166
SWIDTH 1000 0
DWIDTH 8 0
BBX 8 15 0 -3
BITMAP
18
3C
3C
66
7E
C3
C3
00
1C
30
60
7C
66
66
3C
ENDCHAR
STARTCHAR U+00A7
ENCODING 167
SWIDTH 1000 0
DWIDTH 8 0
BBX 8 15 0 -3
BITMAP
18
3C
3C
66
7E
C3
C3
00
7E
66
06
0C
18
18
18
ENDCHAR
STARTCHAR U+00A8
ENCODING 168
SWIDTH 1000 0
DWIDTH 8 0
BBX 8 15 0 -3
BITMAP
18
3C
3C
66
7E
C3
C3
00
3C
66
66
3C
66
66
3C
ENDCHAR
STARTCHAR U+00A9
ENCODING 169
SWIDTH 1000 0
DWIDTH 8 0
BBX 8 15 0 -3
BITMAP
18
3C
3C
66
7E
C3
C3
00
3C
66
66
3E
06
0C
38
ENDCHAR
STARTCHAR U+00AA
ENCODING 170
SWIDTH 1000 0
DWIDTH 8 0
BBX 8 15 0 -3
BITMAP
18
3C
3C
66
7E
C3
C3
00
18
3C
3C
66
7E
C3
C3
ENDCHAR
STARTCHAR U+00AB
ENCODING 171
SWIDTH 1000 0
DWIDTH 8 0
BBX 8 15 0 -3
BITMAP
18
3C
3C
66
7E
C3
C3
00
FC
66
66
7C
66
66
FC
ENDCHAR
STARTCHAR U+00AC
ENCODING 172
SWIDTH 1000 0
DWIDTH 8 0
BBX 8 15 0 -3
BITMAP
18
3C
3C
66
7E
C3
C3
00
3C
66
C0
C0
C0
66
3C
ENDCHAR
STARTCHAR U+00AD
ENCODING 173
SWIDTH 1000 0
DWIDTH 8 0
BBX 8 15 0 -3
BITMAP
18
3C
3C
66
7E
C3
C3
00
F8
6C
66
66
66
6C
F8
ENDCHAR
STARTCHAR U+00AE
ENCODING 174
SWIDTH 1000 0
DWIDTH 8 0
BBX 8 15 0 -3
BITMAP
18
3C
3C
66
7E
C3
C3
00
FE
66
60
78
60
66
FE
ENDCHAR
STARTCHAR U+00AF
ENCODING 175
SWIDTH 1000 0
DWIDTH 8 0
BBX 8 15 0 -3
BITMAP
18
3C
3C
66
7E
C3
C3
00
FE
66
60
78
60
60
F0
ENDCHAR
STARTCHAR U+00B0
ENCODING 176
SWIDTH 1000 0
DWIDTH 8 0
BBX 8 13 0 -1
BITMAP
FF
00
00
00
FF
00
00
00
FF
00
00
00
FF
ENDCHAR
STARTCHAR U+00B1
ENCODING 177
SWIDTH 1000 0
DWIDTH 8 0
BBX 8 15 0 -3
BITMAP
FF
00
FF
00
FF
00
FF
00
FF
00
FF
00
FF
00
FF
ENDCHAR
STARTCHAR U+00B2
ENCODING 178
SWIDTH 1000 0
DWIDTH 8 0
BBX 8 15 0 -3
BITMAP
FF
FF
FF
00
FF
FF
FF
00
FF
FF
FF
00
FF
FF
FF
ENDCHAR
STARTCHAR U+00B3
ENCODING 179
SWIDTH 1000 0
DWIDTH 8 0
BBX 2 16 3 -4
BITMAP
C0
C0
C0
C0
C0
C0
C0
C0
C0
C0
C0
C0
C0
C0
C0
C0
ENDCHAR
STARTCHAR U+00B4
ENCODING 180
SWIDTH 1000 0
DWIDTH 8 0
BBX 5 16 0 -4
BITMAP
18
18
18
18
18
18
18
F8
F8
18
18
18
18
18
18
18
ENDCHAR
STARTCHAR U+00B5
ENCODING 181
SWIDTH 1000 0
DWIDTH 8 0
BBX 5 16 0 -4
BITMAP
18
18
18
18
18
18
18
F8
F8
18
F8
18
18
18
18
18
ENDCHAR
STARTCHAR U+00B6
ENCODING 182
SWIDTH 1000 0
DWIDTH 8 0
BBX 7 16 0 -4
BITMAP
1A
1A
1A
1A
1A
1A
1A
FA
FA
1A
1A
1A
1A
1A
1A
1A
ENDCHAR
STARTCHAR U+00B7
ENCODING 183
SWIDTH 1000 0
DWIDTH 8 0
BBX 7 9 0 -4
BITMAP
F8
FC
1A
1A
1A
1A
1A
1A
1A
ENDCHAR
STARTCHAR U+00B8
ENCODING 184
SWIDTH 1000 0
DWIDTH 8 0
BBX 5 10 0 -4
BITMAP
F8
F8
18
F8
18
18
18
18
18
18
ENDCHAR
STARTCHAR U+00B9
ENCODING 185
SWIDTH 1000 0
DWIDTH 8 0
BBX 7 16 0 -4
BITMAP
1A
1A
1A
1A
1A
1A
1A
FA
FA
1A
FA
1A
1A
1A
1A
1A
ENDCHAR
STARTCHAR U+00BA
ENCODING 186
SWIDTH 1000 0
DWIDTH 8 0
BBX 4 16 3 -4
BITMAP
D0
D0
D0
D0
D0
D0
D0
D0
D0
D0
D0
D0
D0
D0
D0
D0
ENDCHAR
STARTCHAR U+00BB
ENCODING 187
SWIDTH 1000 0
DWIDTH 8 0
BBX 7 9 0 -4
BITMAP
F8
FC
1A
FA
1A
1A
1A
1A
1A
ENDCHAR
STARTCHAR U+00BC
ENCODING 188
SWIDTH 1000 0
DWIDTH 8 0
BBX 7 11 0 1
BITMAP
1A
1A
1A
1A
1A
1A
1A
FA
FA
02
FE
ENDCHAR
STARTCHAR U+00BD
ENCODING 189
SWIDTH 1000 0
DWIDTH 8 0
BBX 7 9 0 3
BITMAP
1A
1A
1A
1A
1A
1A
1A
FC
F8
ENDCHAR
STARTCHAR U+00BE
ENCODING 190
SWIDTH 1000 0
DWIDTH 8 0
BBX 5 11 0 1
BITMAP
18
18
18
18
18
18
18
F8
F8
10
E0
ENDCHAR
STARTCHAR U+00BF
ENCODING 191
SWIDTH 1000 0
DWIDTH 8 0
BBX 5 9 0 -4
BITMAP
F8
F8
18
18
18
18
18
18
18
ENDCHAR
STARTCHAR U+00C0
ENCODING 192
SWIDTH 1000 0
DWIDTH 8 0
BBX 5 9 3 3
BITMAP
C0
C0
C0
C0
C0
C0
C0
F8
F8
ENDCHAR
STARTCHAR U+00C1
ENCODING 193
SWIDTH 1000 0
DWIDTH 8 0
BBX 8 9 0 3
BITMAP
18
18
18
18
18
18
18
FF
FF
ENDCHAR
STARTCHAR U+00C2
ENCODING 194
SWIDTH 1000 0
DWIDTH 8 0
BBX 8 9 0 -4
BITMAP
FF
FF
18
18
18
18
18
18
18
ENDCHAR
STARTCHAR U+00C3
ENCODING 195
SWIDTH 1000 0
DWIDTH 8 0
BBX 5 16 3 -4
BITMAP
C0
C0
C0
C0
C0
C0
C0
F8
F8
C0
C0
C0
C0
C0
C0
C0
ENDCHAR
STARTCHAR U+00C4
ENCODING 196
SWIDTH 1000 0
DWIDTH 8 0
BBX 8 2 0 3
BITMAP
FF
FF
ENDCHAR
STARTCHAR U+00C5
ENCODING 197
SWIDTH 1000 0
DWIDTH 8 0
BBX 8 16 0 -4
BITMAP
18
18
18
18
18
18
18
FF
FF
18
18
18
18
18
18
18
ENDCHAR
STARTCHAR U+00C6
ENCODING 198
SWIDTH 1000 0
DWIDTH 8 0
BBX 5 16 3 -4
BITMAP
C0
C0
C0
C0
C0
C0
C0
F8
F8
C0
F8
C0
C0
C0
C0
C0
ENDCHAR
STARTCHAR U+00C7
ENCODING 199
SWIDTH 1000 0
DWIDTH 8 0
BBX 5 16 3 -4
BITMAP
D0
D0
D0
D0
D0
D0
D0
F8
F8
D0
D0
D0
D0
D0
D0
D0
ENDCHAR
STARTCHAR U+00C8
ENCODING 200
SWIDTH 1000 0
DWIDTH 8 0
BBX 5 11 3 1
BITMAP
D0
D0
D0
D0
D0
D0
D0
F8
F8
40
38
ENDCHAR
STARTCHAR U+00C9
ENCODING 201
SWIDTH 1000 0
DWIDTH 8 0
BBX 5 9 3 -4
BITMAP
F8
F8
C0
D8
D0
D0
D0
D0
D0
ENDCHAR
STARTCHAR U+00CA
ENCODING 202
SWIDTH 1000 0
DWIDTH 8 0
BBX 8 11 0 1
BITMAP
1A
1A
1A
1A
1A
1A
1A
FF
FF
00
FF
ENDCHAR
STARTCHAR U+00CB
ENCODING 203
SWIDTH 1000 0
DWIDTH 8 0
BBX 8 9 0 -4
BITMAP
FF
FF
18
FB
1A
1A
1A
1A
1A
ENDCHAR
STARTCHAR U+00CC
ENCODING 204
SWIDTH 1000 0
DWIDTH 8 0
BBX 5 16 3 -4
BITMAP
D0
D0
D0
D0
D0
D0
D0
F8
F8
C0
D8
D0
D0
D0
D0
D0
ENDCHAR
STARTCHAR U+00CD
ENCODING 205
SWIDTH 1000 0
DWIDTH 8 0
BBX 8 4 0 1
BITMAP
FF
FF
00
FF
ENDCHAR
STARTCHAR U+00CE
ENCODING 206
SWIDTH 1000 0
DWIDTH 8 0
BBX 8 16 0 -4
BITMAP
1A
1A
1A
1A
1A
1A
1A
FF
FF
18
FB
1A
1A
1A
1A
1A
ENDCHAR
STARTCHAR U+00CF
ENCODING 207
SWIDTH 1000 0
DWIDTH 8 0
BBX 8 11 0 1
BITMAP
18
18
18
18
18
18
18
FF
FF
00
FF
ENDCHAR
STARTCHAR U+00D0
ENCODING 208
SWIDTH 1000 0
DWIDTH 8 0
BBX 8 9 0 3
BITMAP
1A
1A
1A
1A
1A
1A
1A
FF
FF
ENDCHAR
STARTCHAR U+00D1
ENCODING 209
SWIDTH 1000 0
DWIDTH 8 0
BBX 8 9 0 -4
BITMAP
FF
FF
18
FF
18
18
18
18
18
ENDCHAR
STARTCHAR U+00D2
ENCODING 210
SWIDTH 1000 0
DWIDTH 8 0
BBX 8 9 0 -4
BITMAP
FF
FF
1A
1A
1A
1A
1A
1A
1A
ENDCHAR
STARTCHAR U+00D3
ENCODING 211
SWIDTH 1000 0
DWIDTH 8 0
BBX 5 9 3 3
BITMAP
D0
D0
D0
D0
D0
D0
D0
F8
F8
ENDCHAR
STARTCHAR U+00D4
ENCODING 212
SWIDTH 1000 0
DWIDTH 8 0
BBX 5 11 3 1
BITMAP
C0
C0
C0
C0
C0
C0
C0
F8
F8
40
38
ENDCHAR
STARTCHAR U+00D5
ENCODING 213
SWIDTH 1000 0
DWIDTH 8 0
BBX 5 9 3 -4
BITMAP
F8
F8
C0
F8
C0
C0
C0
C0
C0
ENDCHAR
STARTCHAR U+00D6
ENCODING 214
SWIDTH 1000 0
DWIDTH 8 0
BBX 5 9 3 -4
BITMAP
F8
F8
D0
D0
D0
D0
D0
D0
D0
ENDCHAR
STARTCHAR U+00D7
ENCODING 215
SWIDTH 1000 0
DWIDTH 8 0
BBX 8 16 0 -4
BITMAP
1A
1A
1A
1A
1A
1A
1A
FF
FF
1A
1A
1A
1A
1A
1A
1A
ENDCHAR
STARTCHAR U+00D8
ENCODING 216
SWIDTH 1000 0
DWIDTH 8 0
BBX 8 16 0 -4
BITMAP
18
18
18
18
18
18
18
FF
FF
18
FF
18
18
18
18
18
ENDCHAR
STARTCHAR U+00D9
ENCODING 217
SWIDTH 1000 0
DWIDTH 8 0
BBX 5 9 0 3
BITMAP
18
18
18
18
18
18
18
F8
F8
ENDCHAR
STARTCHAR U+00DA
ENCODING 218
SWIDTH 1000 0
DWIDTH 8 0
BBX 5 9 3 -4
BITMAP
F8
F8
C0
C0
C0
C0
C0
C0
C0
ENDCHAR
STARTCHAR U+00DB
ENCODING 219
SWIDTH 1000 0
DWIDTH 8 0
BBX 8 16 0 -4
BITMAP
FF
FF
FF
FF
FF
FF
FF
FF
FF
FF
FF
FF
FF
FF
FF
FF
ENDCHAR
STARTCHAR U+00DC
ENCODING 220
SWIDTH 1000 0
DWIDTH 8 0
BBX 8 8 0 -4
BITMAP
FF
FF
FF
FF
FF
FF
FF
FF
ENDCHAR
STARTCHAR U+00DD
ENCODING 221
SWIDTH 1000 0
DWIDTH 8 0
BBX 4 16 0 -4
BITMAP
F0
F0
F0
F0
F0
F0
F0
F0
F0
F0
F0
F0
F0
F0
F0
F0
ENDCHAR
STARTCHAR U+00DE
ENCODING 222
SWIDTH 1000 0
DWIDTH 8 0
BBX 4 16 4 -4
BITMAP
F0
F0
F0
F0
F0
F0
F0
F0
F0
F0
F0
F0
F0
F0
F0
F0
ENDCHAR
STARTCHAR U+00DF
ENCODING 223
SWIDTH 1000 0
DWIDTH 8 0
BBX 8 8 0 4
BITMAP
FF
FF
FF
FF
FF
FF
FF
FF
ENDCHAR
STARTCHAR U+00E0
ENCODING 224
SWIDTH 1000 0
DWIDTH 8 0
BBX 7 15 0 -3
BITMAP
FE
66
60
78
60
66
FE
00
3C
66
6E
7E
76
66
3C
ENDCHAR
STARTCHAR U+00E1
ENCODING 225
SWIDTH 1000 0
DWIDTH 8 0
BBX 7 15 0 -3
BITMAP
FE
66
60
78
60
66
FE
00
18
38
18
18
18
18
7E
ENDCHAR
STARTCHAR U+00E2
ENCODING 226
SWIDTH 1000 0
DWIDTH 8 0
BBX 7 15 0 -3
BITMAP
FE
66
60
78
60
66
FE
00
3C
66
06
1C
30
66
7E
ENDCHAR
STARTCHAR U+00E3
ENCODING 227
SWIDTH 1000 0
DWIDTH 8 0
BBX 7 15 0 -3
BITMAP
FE
66
60
78
60
66
FE
00
3C
66
06
1C
06
66
3C
ENDCHAR
STARTCHAR U+00E4
ENCODING 228
SWIDTH 1000 0
DWIDTH 8 0
BBX 7 15 0 -3
BITMAP
FE
66
60
78
60
66
FE
00
1C
3C
6C
CC
FE
0C
1E
ENDCHAR
STARTCHAR U+00E5
ENCODING 229
SWIDTH 1000 0
DWIDTH 8 0
BBX 7 15 0 -3
BITMAP
FE
66
60
78
60
66
FE
00
7E
60
7C
06
06
66
3C
ENDCHAR
STARTCHAR U+00E6
ENCODING 230
SWIDTH 1000 0
DWIDTH 8 0
BBX 7 15 0 -3
BITMAP
FE
66
60
78
60
66
FE
00
1C
30
60
7C
66
66
3C
ENDCHAR
STARTCHAR U+00E7
ENCODING 231
SWIDTH 1000 0
DWIDTH 8 0
BBX 7 15 0 -3
BITMAP
FE
66
60
78
60
66
FE
00
7E
66
06
0C
18
18
18
ENDCHAR
STARTCHAR U+00E8
ENCODING 232
SWIDTH 1000 0
DWIDTH 8 0
BBX 7 15 0 -3
BITMAP
FE
66
60
78
60
66
FE
00
3C
66
66
3C
66
66
3C
ENDCHAR
STARTCHAR U+00E9
ENCODING 233
SWIDTH 1000 0
DWIDTH 8 0
BBX 7 15 0 -3
BITMAP
FE
66
60
78
60
66
FE
00
3C
66
66
3E
06
0C
38
ENDCHAR
STARTCHAR U+00EA
ENCODING 234
SWIDTH 1000 0
DWIDTH 8 0
BBX 8 15 0 -3
BITMAP
FE
66
60
78
60
66
FE
00
18
3C
3C
66
7E
C3
C3
ENDCHAR
STARTCHAR U+00EB
ENCODING 235
SWIDTH 1000 0
DWIDTH 8 0
BBX 7 15 0 -3
BITMAP
FE
66
60
78
60
66
FE
00
FC
66
66
7C
66
66
FC
ENDCHAR
STARTCHAR U+00EC
ENCODING 236
SWIDTH 1000 0
DWIDTH 8 0
BBX 7 15 0 -3
BITMAP
FE
66
60
78
60
66
FE
00
3C
66
C0
C0
C0
66
3C
ENDCHAR
STARTCHAR U+00ED
ENCODING 237
SWIDTH 1000 0
DWIDTH 8 0
BBX 7 15 0 -3
BITMAP
FE
66
60
78
60
66
FE
00
F8
6C
66
66
66
6C
F8
ENDCHAR
STARTCHAR U+00EE
ENCODING 238
SWIDTH 1000 0
DWIDTH 8 0
BBX 7 15 0 -3
BITMAP
FE
66
60
78
60
66
FE
00
FE
66
60
78
60
66
FE
ENDCHAR
STARTCHAR U+00EF
ENCODING 239
SWIDTH 1000 0
DWIDTH 8 0
BBX 7 15 0 -3
BITMAP
FE
66
60
78
60
66
FE
00
FE
66
60
78
60
60
F0
ENDCHAR
STARTCHAR U+00F0
ENCODING 240
SWIDTH 1000 0
DWIDTH 8 0
BBX 7 15 0 -3
BITMAP
FE
66
60
78
60
60
F0
00
3C
66
6E
7E
76
66
3C
ENDCHAR
STARTCHAR U+00F1
ENCODING 241
SWIDTH 1000 0
DWIDTH 8 0
BBX 7 15 0 -3
BITMAP
FE
66
60
78
60
60
F0
00
18
38
18
18
18
18
7E
ENDCHAR
STARTCHAR U+00F2
ENCODING 242
SWIDTH 1000 0
DWIDTH 8 0
BBX 7 15 0 -3
BITMAP
FE
66
60
78
60
60
F0
00
3C
66
06
1C
30
66
7E
ENDCHAR
STARTCHAR U+00F3
ENCODING 243
SWIDTH 1000 0
DWIDTH 8 0
BBX 7 15 0 -3
BITMAP
FE
66
60
78
60
60
F0
00
3C
66
06
1C
06
66
3C
ENDCHAR
STARTCHAR U+00F4
ENCODING 244
SWIDTH 1000 0
DWIDTH 8 0
BBX 7 15 0 -3
BITMAP
FE
66
60
78
60
60
F0
00
1C
3C
6C
CC
FE
0C
1E
ENDCHAR
STARTCHAR U+00F5
ENCODING 245
SWIDTH 1000 0
DWIDTH 8 0
BBX 7 15 0 -3
BITMAP
FE
66
60
78
60
60
F0
00
7E
60
7C
06
06
66
3C
ENDCHAR
STARTCHAR U+00F6
ENCODING 246
SWIDTH 1000 0
DWIDTH 8 0
BBX 7 15 0 -3
BITMAP
FE
66
60
78
60
60
F0
00
1C
30
60
7C
66
66
3C
ENDCHAR
STARTCHAR U+00F7
ENCODING 247
SWIDTH 1000 0
DWIDTH 8 0
BBX 7 15 0 -3
BITMAP
FE
66
60
78
60
60
F0
00
7E
66
06
0C
18
18
18
ENDCHAR
STARTCHAR U+00F8
ENCODING 248
SWIDTH 1000 0
DWIDTH 8 0
BBX 7 15 0 -3
BITMAP
FE
66
60
78
60
60
F0
00
3C
66
66
3C
66
66
3C
ENDCHAR
STARTCHAR U+00F9
ENCODING 249
SWIDTH 1000 0
DWIDTH 8 0
BBX 7 15 0 -3
BITMAP
FE
66
60
78
60
60
F0
00
3C
66
66
3E
06
0C
38
ENDCHAR
STARTCHAR U+00FA
ENCODING 250
SWIDTH 1000 0
DWIDTH 8 0
BBX 8 15 0 -3
BITMAP
FE
66
60
78
60
60
F0
00
18
3C
3C
66
7E
C3
C3
ENDCHAR
STARTCHAR U+00FB
ENCODING 251
SWIDTH 1000 0
DWIDTH 8 0
BBX 7 15 0 -3
BITMAP
FE
66
60
78
60
60
F0
00
FC
66
66
7C
66
66
FC
ENDCHAR
STARTCHAR U+00FC
ENCODING 252
SWIDTH 1000 0
DWIDTH 8 0
BBX 7 15 0 -3
BITMAP
FE
66
60
78
60
60
F0
00
3C
66
C0
C0
C0
66
3C
ENDCHAR
STARTCHAR U+00FD
ENCODING 253
SWIDTH 1000 0
DWIDTH 8 0
BBX 7 15 0 -3
BITMAP
FE
62
60
78
60
60
F0
00
F8
6C
66
66
66
6C
F8
ENDCHAR
STARTCHAR U+00FE
ENCODING 254
SWIDTH 1000 0
DWIDTH 8 0
BBX 7 15 0 -3
BITMAP
FE
66
60
78
60
60
F0
00
FE
66
60
78
60
66
FE
ENDCHAR
STARTCHAR U+00FF
ENCODING 255
SWIDTH 1000 0
DWIDTH 8 0
BBX 7 15 0 -3
BITMAP
FE
66
60
78
60
60
F0
00
FE
66
60
78
60
60
F0
ENDCHAR
ENDFONT
